<svg width="93" height="93" viewBox="0 0 93 93" fill="none" xmlns="http://www.w3.org/2000/svg">
<g clip-path="url(#clip0_48_217)">
<path d="M81.8833 0V30.3204H65.543L49.2026 13.9801V0H81.8833Z" fill="#FF6536"/>
<path d="M81.8833 0V30.3204H65.543L54.6494 19.4268V0H81.8833Z" fill="#F03800"/>
<path d="M32.8623 11.2567H65.543V30.3204H32.8623V11.2567Z" fill="#FDBF00"/>
<path d="M54.6494 11.2567H65.543V30.3204H54.6494V11.2567Z" fill="#FF9100"/>
<path d="M92.9583 71.1713V76.618H22.241L16.7942 22.1503H0V16.7035H21.6963L22.7857 27.597H92.9583L86.8938 65.7245H26.5984L27.1431 71.1713H92.9583Z" fill="#7ED8F6"/>
<path d="M27.4155 84.7882C27.4155 89.2931 31.0808 92.9584 35.5857 92.9584C40.0906 92.9584 43.7559 89.2931 43.7559 84.7882C43.7559 80.2833 40.0906 76.618 35.5857 76.618C31.0808 76.618 27.4155 80.2833 27.4155 84.7882Z" fill="#7ED8F6"/>
<path d="M81.8833 84.7882C81.8833 89.3088 78.2344 92.9584 73.7131 92.9584C69.1919 92.9584 65.543 89.3088 65.543 84.7882C65.543 80.267 69.1919 76.618 73.7131 76.618C78.2344 76.618 81.8833 80.267 81.8833 84.7882Z" fill="#6AA9FF"/>
<path d="M54.6494 71.1713H92.9584V76.618H54.6494V71.1713Z" fill="#6AA9FF"/>
<path d="M86.8939 65.7245H54.6494V27.597H92.9584L86.8939 65.7245Z" fill="#6AA9FF"/>
</g>
<defs>
<clipPath id="clip0_48_217">
<rect width="92.9583" height="92.9583" fill="white"/>
</clipPath>
</defs>
</svg>
